<svg class="K8nmB" width="24" height="24" viewBox="0 0 24 24" version="1.1" aria-hidden="false"><desc lang="en-US">Pen Tool</desc><path d="m16.184 2.953-2.12 2.124L18.83 9.84l2.12-2.12a2.13 2.13 0 0 0 0-3.013l-1.75-1.755a2.13 2.13 0 0 0-3.015 0Zm-3.06 2.904-.35.107-5.483 1.644a2.434 2.434 0 0 0-1.61 1.56L2.31 19.222c-.145.43-.039.91.277 1.233l5.846-5.841a1.826 1.826 0 1 1 .86.86l-5.846 5.845c.328.316.803.426 1.233.277l10.058-3.371a2.442 2.442 0 0 0 1.56-1.61l1.645-5.484.106-.35-4.924-4.924Z"></path></svg>